<?xml version="1.0" standalone="no"?><!DOCTYPE svg PUBLIC "-//W3C//DTD SVG 1.1//EN" "http://www.w3.org/Graphics/SVG/1.1/DTD/svg11.dtd"><svg t="1715266618158" class="icon" viewBox="0 0 1024 1024" version="1.1" xmlns="http://www.w3.org/2000/svg" p-id="17954" xmlns:xlink="http://www.w3.org/1999/xlink" width="32" height="32"><path d="M883.33056 71.662933h-63.4368a133.12 133.12 0 0 1-133.12 133.12H337.23136a133.12 133.12 0 0 1-133.12-133.12H139.718827A84.411733 84.411733 0 0 0 57.201493 157.986133v779.707734a84.411733 84.411733 0 0 0 82.517334 86.3232h744.516266a84.411733 84.411733 0 0 0 82.517334-86.3232V157.986133a84.8896 84.8896 0 0 0-83.421867-86.3232z m-143.086933 433.493334L517.04576 725.8624a51.0464 51.0464 0 0 1-69.632 0l-118.766933-118.749867a47.684267 47.684267 0 0 1 67.242666-67.242666l86.3232 86.3232L673.00096 435.438933a47.684267 47.684267 0 1 1 67.242667 67.242667z" fill="#2c2c2c" p-id="17955"></path><path d="M363.206827 0h297.181866q71.68 0 71.68 71.68t-71.68 71.68H363.18976q-71.68 0-71.68-71.68 0.017067-71.68 71.68-71.68z" fill="#2c2c2c" p-id="17956"></path></svg>